<svg viewBox="0 0 360 720" xmlns="http://www.w3.org/2000/svg" font-family="'Helvetica Neue', Arial, sans-serif">
  <defs>
    <clipPath id="screenClipA">
      <rect x="12" y="48" width="336" height="646" rx="6"/>
    </clipPath>
  </defs>

  <!-- Phone body -->
  <rect width="360" height="720" rx="40" fill="#1A1A1A" stroke="#3A3A3A" stroke-width="1.5"/>
  <rect x="-1.5" y="140" width="4" height="50" rx="2" fill="#2A2A2A"/>
  <rect x="-1.5" y="205" width="4" height="80" rx="2" fill="#2A2A2A"/>
  <rect x="357.5" y="170" width="4" height="90" rx="2" fill="#2A2A2A"/>
  <circle cx="180" cy="28" r="6" fill="#111111" stroke="#2A2A2A" stroke-width="1"/>
  <circle cx="180" cy="28" r="2.5" fill="#1E1E1E"/>

  <!-- Screen background -->
  <rect x="12" y="48" width="336" height="646" rx="6" fill="#1E1E1E"/>

  <!-- === APP BAR === -->
  <circle cx="32" cy="77" r="13" fill="#2A2A2A"/>
  <text x="30" y="82" text-anchor="middle" font-size="14" fill="#00E676">←</text>
  <text x="180" y="83" text-anchor="middle" font-size="18" font-weight="700" fill="#00E676">Analytics</text>
  <line x1="12" y1="106" x2="348" y2="106" stroke="#2A2A2A" stroke-width="0.8"/>

  <!-- === TAB ROW === -->
  <!-- Selected: Graph -->
  <rect x="20" y="114" width="72" height="28" rx="14" fill="#00E676"/>
  <text x="56" y="132" text-anchor="middle" font-size="11" font-weight="700" fill="#000">Graph</text>
  <!-- Unselected tabs -->
  <rect x="100" y="114" width="60" height="28" rx="14" fill="#2A2A2A"/>
  <text x="130" y="132" text-anchor="middle" font-size="11" fill="#888">Week</text>
  <rect x="168" y="114" width="66" height="28" rx="14" fill="#2A2A2A"/>
  <text x="201" y="132" text-anchor="middle" font-size="11" fill="#888">Month</text>
  <rect x="242" y="114" width="56" height="28" rx="14" fill="#2A2A2A"/>
  <text x="270" y="132" text-anchor="middle" font-size="11" fill="#888">Year</text>
  <!-- Period dropdown -->
  <rect x="300" y="114" width="40" height="28" rx="14" fill="#2A2A2A"/>
  <text x="320" y="132" text-anchor="middle" font-size="10" fill="#888">3M ▾</text>

  <!-- === STATS SUMMARY ROW === -->
  <rect x="20" y="154" width="96" height="64" rx="10" fill="#242424"/>
  <text x="68" y="178" text-anchor="middle" font-size="22" font-weight="800" fill="#00E676">87%</text>
  <text x="68" y="195" text-anchor="middle" font-size="9" fill="#666">Completion</text>
  <text x="68" y="208" text-anchor="middle" font-size="9" fill="#888">Past 90 days</text>

  <rect x="128" y="154" width="96" height="64" rx="10" fill="#242424"/>
  <text x="176" y="178" text-anchor="middle" font-size="22" font-weight="800" fill="#FFEB3B">28</text>
  <text x="176" y="195" text-anchor="middle" font-size="9" fill="#666">Best Streak</text>
  <text x="176" y="208" text-anchor="middle" font-size="9" fill="#FFEB3B">🔥 days</text>

  <rect x="236" y="154" width="96" height="64" rx="10" fill="#242424"/>
  <text x="284" y="178" text-anchor="middle" font-size="22" font-weight="800" fill="#7B7FFF">142</text>
  <text x="284" y="195" text-anchor="middle" font-size="9" fill="#666">Tasks Done</text>
  <text x="284" y="208" text-anchor="middle" font-size="9" fill="#888">All time</text>

  <!-- === HEATMAP SECTION === -->
  <text x="20" y="240" font-size="11" fill="#888" letter-spacing="1.5" font-weight="600">CONTRIBUTION HEATMAP</text>

  <!-- Month labels -->
  <text x="20" y="256" font-size="8" fill="#555">Nov</text>
  <text x="76" y="256" font-size="8" fill="#555">Dec</text>
  <text x="132" y="256" font-size="8" fill="#555">Jan</text>
  <text x="188" y="256" font-size="8" fill="#555">Feb</text>
  <text x="244" y="256" font-size="8" fill="#555">Mar</text>
  <text x="300" y="256" font-size="8" fill="#555">Apr</text>

  <!-- Heatmap grid: 7 rows x 26 cols, cell=11x11, gap=1 -->
  <!-- Row 0 Mon -->
  <g>
    <rect x="20" y="260" width="11" height="11" rx="2" fill="#1A3A1A"/>
    <rect x="33" y="260" width="11" height="11" rx="2" fill="#00C853" opacity="0.3"/>
    <rect x="46" y="260" width="11" height="11" rx="2" fill="#00C853" opacity="0.6"/>
    <rect x="59" y="260" width="11" height="11" rx="2" fill="#00E676"/>
    <rect x="72" y="260" width="11" height="11" rx="2" fill="#1A3A1A"/>
    <rect x="85" y="260" width="11" height="11" rx="2" fill="#00C853" opacity="0.5"/>
    <rect x="98" y="260" width="11" height="11" rx="2" fill="#00E676"/>
    <rect x="111" y="260" width="11" height="11" rx="2" fill="#00E676"/>
    <rect x="124" y="260" width="11" height="11" rx="2" fill="#1A3A1A"/>
    <rect x="137" y="260" width="11" height="11" rx="2" fill="#00E676"/>
    <rect x="150" y="260" width="11" height="11" rx="2" fill="#00C853" opacity="0.4"/>
    <rect x="163" y="260" width="11" height="11" rx="2" fill="#00E676"/>
    <rect x="176" y="260" width="11" height="11" rx="2" fill="#00E676"/>
    <rect x="189" y="260" width="11" height="11" rx="2" fill="#00C853" opacity="0.7"/>
    <rect x="202" y="260" width="11" height="11" rx="2" fill="#00E676"/>
    <rect x="215" y="260" width="11" height="11" rx="2" fill="#1A3A1A"/>
    <rect x="228" y="260" width="11" height="11" rx="2" fill="#00E676"/>
    <rect x="241" y="260" width="11" height="11" rx="2" fill="#00E676"/>
    <rect x="254" y="260" width="11" height="11" rx="2" fill="#00C853" opacity="0.5"/>
    <rect x="267" y="260" width="11" height="11" rx="2" fill="#00E676"/>
    <rect x="280" y="260" width="11" height="11" rx="2" fill="#00E676"/>
    <rect x="293" y="260" width="11" height="11" rx="2" fill="#00E676"/>
    <rect x="306" y="260" width="11" height="11" rx="2" fill="#1A3A1A"/>
    <rect x="319" y="260" width="11" height="11" rx="2" fill="#00E676"/>
  </g>
  <!-- Row 1 Tue -->
  <g>
    <rect x="20" y="273" width="11" height="11" rx="2" fill="#00E676"/>
    <rect x="33" y="273" width="11" height="11" rx="2" fill="#00E676"/>
    <rect x="46" y="273" width="11" height="11" rx="2" fill="#1A3A1A"/>
    <rect x="59" y="273" width="11" height="11" rx="2" fill="#00C853" opacity="0.4"/>
    <rect x="72" y="273" width="11" height="11" rx="2" fill="#00E676"/>
    <rect x="85" y="273" width="11" height="11" rx="2" fill="#00E676"/>
    <rect x="98" y="273" width="11" height="11" rx="2" fill="#00C853" opacity="0.6"/>
    <rect x="111" y="273" width="11" height="11" rx="2" fill="#1A3A1A"/>
    <rect x="124" y="273" width="11" height="11" rx="2" fill="#00E676"/>
    <rect x="137" y="273" width="11" height="11" rx="2" fill="#00E676"/>
    <rect x="150" y="273" width="11" height="11" rx="2" fill="#00E676"/>
    <rect x="163" y="273" width="11" height="11" rx="2" fill="#1A3A1A"/>
    <rect x="176" y="273" width="11" height="11" rx="2" fill="#00C853" opacity="0.3"/>
    <rect x="189" y="273" width="11" height="11" rx="2" fill="#00E676"/>
    <rect x="202" y="273" width="11" height="11" rx="2" fill="#00E676"/>
    <rect x="215" y="273" width="11" height="11" rx="2" fill="#00E676"/>
    <rect x="228" y="273" width="11" height="11" rx="2" fill="#00E676"/>
    <rect x="241" y="273" width="11" height="11" rx="2" fill="#1A3A1A"/>
    <rect x="254" y="273" width="11" height="11" rx="2" fill="#00E676"/>
    <rect x="267" y="273" width="11" height="11" rx="2" fill="#00C853" opacity="0.5"/>
    <rect x="280" y="273" width="11" height="11" rx="2" fill="#00E676"/>
    <rect x="293" y="273" width="11" height="11" rx="2" fill="#1A3A1A"/>
    <rect x="306" y="273" width="11" height="11" rx="2" fill="#00E676"/>
    <rect x="319" y="273" width="11" height="11" rx="2" fill="#00E676"/>
  </g>
  <!-- Row 2 Wed -->
  <g>
    <rect x="20" y="286" width="11" height="11" rx="2" fill="#00C853" opacity="0.5"/>
    <rect x="33" y="286" width="11" height="11" rx="2" fill="#1A3A1A"/>
    <rect x="46" y="286" width="11" height="11" rx="2" fill="#00E676"/>
    <rect x="59" y="286" width="11" height="11" rx="2" fill="#00E676"/>
    <rect x="72" y="286" width="11" height="11" rx="2" fill="#00C853" opacity="0.4"/>
    <rect x="85" y="286" width="11" height="11" rx="2" fill="#00E676"/>
    <rect x="98" y="286" width="11" height="11" rx="2" fill="#00E676"/>
    <rect x="111" y="286" width="11" height="11" rx="2" fill="#00E676"/>
    <rect x="124" y="286" width="11" height="11" rx="2" fill="#1A3A1A"/>
    <rect x="137" y="286" width="11" height="11" rx="2" fill="#00C853" opacity="0.6"/>
    <rect x="150" y="286" width="11" height="11" rx="2" fill="#00E676"/>
    <rect x="163" y="286" width="11" height="11" rx="2" fill="#00E676"/>
    <rect x="176" y="286" width="11" height="11" rx="2" fill="#00E676"/>
    <rect x="189" y="286" width="11" height="11" rx="2" fill="#1A3A1A"/>
    <rect x="202" y="286" width="11" height="11" rx="2" fill="#00E676"/>
    <rect x="215" y="286" width="11" height="11" rx="2" fill="#00C853" opacity="0.3"/>
    <rect x="228" y="286" width="11" height="11" rx="2" fill="#00E676"/>
    <rect x="241" y="286" width="11" height="11" rx="2" fill="#00E676"/>
    <rect x="254" y="286" width="11" height="11" rx="2" fill="#00E676"/>
    <rect x="267" y="286" width="11" height="11" rx="2" fill="#1A3A1A"/>
    <rect x="280" y="286" width="11" height="11" rx="2" fill="#00E676"/>
    <rect x="293" y="286" width="11" height="11" rx="2" fill="#00E676"/>
    <rect x="306" y="286" width="11" height="11" rx="2" fill="#00C853" opacity="0.5"/>
    <rect x="319" y="286" width="11" height="11" rx="2" fill="#00E676"/>
  </g>
  <!-- Row 3 Thu -->
  <g>
    <rect x="20" y="299" width="11" height="11" rx="2" fill="#00E676"/>
    <rect x="33" y="299" width="11" height="11" rx="2" fill="#00E676"/>
    <rect x="46" y="299" width="11" height="11" rx="2" fill="#00C853" opacity="0.4"/>
    <rect x="59" y="299" width="11" height="11" rx="2" fill="#1A3A1A"/>
    <rect x="72" y="299" width="11" height="11" rx="2" fill="#00E676"/>
    <rect x="85" y="299" width="11" height="11" rx="2" fill="#1A3A1A"/>
    <rect x="98" y="299" width="11" height="11" rx="2" fill="#00E676"/>
    <rect x="111" y="299" width="11" height="11" rx="2" fill="#00C853" opacity="0.7"/>
    <rect x="124" y="299" width="11" height="11" rx="2" fill="#00E676"/>
    <rect x="137" y="299" width="11" height="11" rx="2" fill="#00E676"/>
    <rect x="150" y="299" width="11" height="11" rx="2" fill="#1A3A1A"/>
    <rect x="163" y="299" width="11" height="11" rx="2" fill="#00E676"/>
    <rect x="176" y="299" width="11" height="11" rx="2" fill="#00C853" opacity="0.5"/>
    <rect x="189" y="299" width="11" height="11" rx="2" fill="#00E676"/>
    <rect x="202" y="299" width="11" height="11" rx="2" fill="#00E676"/>
    <rect x="215" y="299" width="11" height="11" rx="2" fill="#1A3A1A"/>
    <rect x="228" y="299" width="11" height="11" rx="2" fill="#00E676"/>
    <rect x="241" y="299" width="11" height="11" rx="2" fill="#00C853" opacity="0.4"/>
    <rect x="254" y="299" width="11" height="11" rx="2" fill="#00E676"/>
    <rect x="267" y="299" width="11" height="11" rx="2" fill="#00E676"/>
    <rect x="280" y="299" width="11" height="11" rx="2" fill="#1A3A1A"/>
    <rect x="293" y="299" width="11" height="11" rx="2" fill="#00E676"/>
    <rect x="306" y="299" width="11" height="11" rx="2" fill="#00E676"/>
    <rect x="319" y="299" width="11" height="11" rx="2" fill="#00C853" opacity="0.6"/>
  </g>
  <!-- Row 4 Fri -->
  <g>
    <rect x="20" y="312" width="11" height="11" rx="2" fill="#1A3A1A"/>
    <rect x="33" y="312" width="11" height="11" rx="2" fill="#00E676"/>
    <rect x="46" y="312" width="11" height="11" rx="2" fill="#00E676"/>
    <rect x="59" y="312" width="11" height="11" rx="2" fill="#00C853" opacity="0.6"/>
    <rect x="72" y="312" width="11" height="11" rx="2" fill="#00E676"/>
    <rect x="85" y="312" width="11" height="11" rx="2" fill="#00E676"/>
    <rect x="98" y="312" width="11" height="11" rx="2" fill="#1A3A1A"/>
    <rect x="111" y="312" width="11" height="11" rx="2" fill="#00E676"/>
    <rect x="124" y="312" width="11" height="11" rx="2" fill="#00C853" opacity="0.5"/>
    <rect x="137" y="312" width="11" height="11" rx="2" fill="#00E676"/>
    <rect x="150" y="312" width="11" height="11" rx="2" fill="#00E676"/>
    <rect x="163" y="312" width="11" height="11" rx="2" fill="#00E676"/>
    <rect x="176" y="312" width="11" height="11" rx="2" fill="#1A3A1A"/>
    <rect x="189" y="312" width="11" height="11" rx="2" fill="#00C853" opacity="0.3"/>
    <rect x="202" y="312" width="11" height="11" rx="2" fill="#00E676"/>
    <rect x="215" y="312" width="11" height="11" rx="2" fill="#00E676"/>
    <rect x="228" y="312" width="11" height="11" rx="2" fill="#00C853" opacity="0.7"/>
    <rect x="241" y="312" width="11" height="11" rx="2" fill="#00E676"/>
    <rect x="254" y="312" width="11" height="11" rx="2" fill="#1A3A1A"/>
    <rect x="267" y="312" width="11" height="11" rx="2" fill="#00E676"/>
    <rect x="280" y="312" width="11" height="11" rx="2" fill="#00E676"/>
    <rect x="293" y="312" width="11" height="11" rx="2" fill="#00E676"/>
    <rect x="306" y="312" width="11" height="11" rx="2" fill="#00C853" opacity="0.4"/>
    <rect x="319" y="312" width="11" height="11" rx="2" fill="#00E676"/>
  </g>

  <!-- Legend -->
  <text x="20" y="340" font-size="8" fill="#555">Less</text>
  <rect x="44" y="330" width="11" height="11" rx="2" fill="#1A3A1A"/>
  <rect x="57" y="330" width="11" height="11" rx="2" fill="#00C853" opacity="0.3"/>
  <rect x="70" y="330" width="11" height="11" rx="2" fill="#00C853" opacity="0.6"/>
  <rect x="83" y="330" width="11" height="11" rx="2" fill="#00E676" opacity="0.8"/>
  <rect x="96" y="330" width="11" height="11" rx="2" fill="#00E676"/>
  <text x="112" y="340" font-size="8" fill="#555">More</text>

  <!-- === BAR CHART PREVIEW === -->
  <line x1="20" y1="360" x2="340" y2="360" stroke="#2A2A2A" stroke-width="0.8"/>
  <text x="20" y="378" font-size="10" fill="#888" letter-spacing="1.5" font-weight="600">DAILY COMPLETIONS — LAST 7 DAYS</text>

  <!-- Bar chart -->
  <g>
    <!-- Mon -->
    <rect x="30" y="450" width="28" height="0" rx="3" fill="#00E676"/>
    <rect x="30" y="416" width="28" height="34" rx="3" fill="#00E676" opacity="0.3"/>
    <rect x="30" y="424" width="28" height="26" rx="3" fill="#00C853" opacity="0.6"/>
    <rect x="30" y="432" width="28" height="18" rx="3" fill="#00E676" opacity="0.9"/>
    <text x="44" y="468" text-anchor="middle" font-size="8" fill="#555">Mon</text>
    <text x="44" y="412" text-anchor="middle" font-size="9" font-weight="700" fill="#00E676">4</text>

    <rect x="76" y="406" width="28" height="44" rx="3" fill="#00E676" opacity="0.3"/>
    <rect x="76" y="416" width="28" height="34" rx="3" fill="#00C853" opacity="0.7"/>
    <rect x="76" y="426" width="28" height="24" rx="3" fill="#00E676"/>
    <text x="90" y="468" text-anchor="middle" font-size="8" fill="#555">Tue</text>
    <text x="90" y="402" text-anchor="middle" font-size="9" font-weight="700" fill="#00E676">5</text>

    <rect x="122" y="430" width="28" height="20" rx="3" fill="#00E676" opacity="0.3"/>
    <rect x="122" y="440" width="28" height="10" rx="3" fill="#00C853" opacity="0.6"/>
    <text x="136" y="468" text-anchor="middle" font-size="8" fill="#555">Wed</text>
    <text x="136" y="426" text-anchor="middle" font-size="9" font-weight="700" fill="#888">2</text>

    <rect x="168" y="398" width="28" height="52" rx="3" fill="#00E676" opacity="0.3"/>
    <rect x="168" y="408" width="28" height="42" rx="3" fill="#00C853" opacity="0.8"/>
    <rect x="168" y="418" width="28" height="32" rx="3" fill="#00E676"/>
    <text x="182" y="468" text-anchor="middle" font-size="8" fill="#555">Thu</text>
    <text x="182" y="394" text-anchor="middle" font-size="9" font-weight="700" fill="#00E676">6</text>

    <rect x="214" y="420" width="28" height="30" rx="3" fill="#00E676" opacity="0.3"/>
    <rect x="214" y="430" width="28" height="20" rx="3" fill="#00C853" opacity="0.6"/>
    <rect x="214" y="438" width="28" height="12" rx="3" fill="#00E676" opacity="0.8"/>
    <text x="228" y="468" text-anchor="middle" font-size="8" fill="#555">Fri</text>
    <text x="228" y="416" text-anchor="middle" font-size="9" font-weight="700" fill="#00E676">3</text>

    <rect x="260" y="390" width="28" height="60" rx="3" fill="#00E676" opacity="0.3"/>
    <rect x="260" y="400" width="28" height="50" rx="3" fill="#00C853" opacity="0.7"/>
    <rect x="260" y="412" width="28" height="38" rx="3" fill="#00E676"/>
    <text x="274" y="468" text-anchor="middle" font-size="8" fill="#555">Sat</text>
    <text x="274" y="386" text-anchor="middle" font-size="9" font-weight="700" fill="#00E676">7</text>

    <rect x="306" y="406" width="28" height="44" rx="3" fill="#00E676" opacity="0.3"/>
    <rect x="306" y="416" width="28" height="34" rx="3" fill="#00C853" opacity="0.7"/>
    <rect x="306" y="426" width="28" height="24" rx="3" fill="#00E676"/>
    <text x="320" y="468" text-anchor="middle" font-size="8" fill="#555">Sun</text>
    <text x="320" y="402" text-anchor="middle" font-size="9" font-weight="700" fill="#00E676">5</text>
  </g>

  <!-- Horizontal axis -->
  <line x1="20" y1="450" x2="340" y2="450" stroke="#2A2A2A" stroke-width="0.8"/>

  <!-- === STREAK INFO === -->
  <rect x="20" y="480" width="148" height="56" rx="10" fill="#242424"/>
  <text x="94" y="500" text-anchor="middle" font-size="10" fill="#888">Current Streak</text>
  <text x="94" y="524" text-anchor="middle" font-size="26" font-weight="900" fill="#FFEB3B">14 🔥</text>

  <rect x="182" y="480" width="148" height="56" rx="10" fill="#242424"/>
  <text x="256" y="500" text-anchor="middle" font-size="10" fill="#888">Best Streak</text>
  <text x="256" y="524" text-anchor="middle" font-size="26" font-weight="900" fill="#00E676">28 🏆</text>

  <!-- Home indicator -->
  <rect x="130" y="704" width="100" height="4" rx="2" fill="#444"/>
</svg>
